<svg width="463" height="383" viewBox="0 0 463 383" fill="none" xmlns="http://www.w3.org/2000/svg">
<g clip-path="url(#clip0_3515_9)">
<path d="M257.94 154.496C255.557 154.447 253.189 154.892 250.986 155.801C248.783 156.711 246.791 158.066 245.137 159.782C243.482 161.498 242.2 163.538 241.372 165.773C240.543 168.008 240.185 170.39 240.321 172.77C240.321 177.543 242.217 182.12 245.592 185.495C248.967 188.87 253.545 190.766 258.318 190.766C263.091 190.766 267.668 188.87 271.043 185.495C274.418 182.12 276.314 177.543 276.314 172.77C276.438 170.329 276.047 167.889 275.166 165.609C274.285 163.329 272.934 161.26 271.201 159.536C269.468 157.813 267.392 156.473 265.107 155.605C262.822 154.737 260.38 154.359 257.94 154.496Z" fill="black"/>
<path d="M435.793 26.5797C427.37 18.1302 417.357 11.4315 406.333 6.86968C395.308 2.30787 383.49 -0.0268108 371.559 0.000232269H90.8133C78.8847 -0.00969855 67.0713 2.33248 56.0488 6.89276C45.0264 11.453 35.0112 18.1419 26.5765 26.5767C18.1417 35.0114 11.4528 45.0266 6.89255 56.049C2.33228 67.0715 -0.00989937 78.885 3.14479e-05 90.8135V225.926C-0.00989937 237.855 2.33228 249.668 6.89255 260.69C11.4528 271.713 18.1417 281.728 26.5765 290.163C35.0112 298.598 45.0264 305.286 56.0488 309.847C67.0713 314.407 78.8847 316.749 90.8133 316.739H194.363L224.265 377.55C224.75 379.001 225.68 380.263 226.922 381.157C228.164 382.051 229.656 382.532 231.186 382.532C232.717 382.532 234.208 382.051 235.45 381.157C236.693 380.263 237.622 379.001 238.108 377.55L268.01 316.639H371.559C383.479 316.648 395.285 314.31 406.3 309.756C417.316 305.202 427.327 298.522 435.76 290.098C444.194 281.674 450.885 271.67 455.451 260.66C460.017 249.649 462.369 237.846 462.373 225.926V90.8135C462.4 78.8826 460.065 67.0643 455.503 56.0399C450.941 45.0156 444.243 35.0031 435.793 26.5797V26.5797ZM101.888 216.462C97.2629 216.66 92.6611 215.706 88.4961 213.685C84.3311 211.664 80.7336 208.64 78.027 204.884H77.5236V213.744H49.2828V94.6897H78.027V139.996C81.0956 136.597 84.8598 133.898 89.0638 132.083C93.2678 130.267 97.8133 129.378 102.391 129.475C107.846 129.649 113.21 130.918 118.165 133.205C123.121 135.492 127.566 138.751 131.237 142.789C134.909 146.827 137.732 151.561 139.539 156.71C141.346 161.86 142.101 167.32 141.757 172.767C142.076 178.269 141.291 183.78 139.448 188.974C137.605 194.169 134.742 198.942 131.027 203.013C127.313 207.085 122.821 210.372 117.816 212.682C112.812 214.991 107.397 216.277 101.888 216.462V216.462ZM192.148 213.693H164.461V145.08C164.461 132.344 162.246 121.269 151.171 119.608V91.921C175.535 91.921 192.148 109.54 192.148 139.543V213.693ZM258.596 215.908C252.559 216.452 246.475 215.733 240.731 213.796C234.987 211.859 229.709 208.746 225.235 204.657C220.76 200.567 217.187 195.59 214.742 190.044C212.297 184.497 211.034 178.502 211.034 172.44C211.034 166.378 212.297 160.383 214.742 154.836C217.187 149.289 220.76 144.312 225.235 140.223C229.709 136.133 234.987 133.021 240.731 131.084C246.475 129.147 252.559 128.427 258.596 128.971C264.637 128.535 270.702 129.338 276.421 131.332C282.14 133.326 287.39 136.467 291.85 140.564C296.31 144.661 299.885 149.627 302.356 155.156C304.827 160.685 306.141 166.661 306.218 172.717C306.184 178.764 304.894 184.738 302.43 190.26C299.966 195.782 296.382 200.733 291.906 204.798C287.429 208.863 282.156 211.954 276.423 213.875C270.689 215.797 264.619 216.506 258.596 215.959V215.908ZM411.429 206.495C411.429 240.827 394.263 257.993 364.361 257.993H358.823V232.017H364.361C379.312 232.017 383.742 222.604 383.742 208.76V204.884C380.629 208.413 376.791 211.229 372.491 213.141C368.191 215.052 363.529 216.013 358.823 215.959C353.511 215.907 348.265 214.776 343.403 212.634C338.541 210.493 334.164 207.386 330.54 203.503C326.915 199.619 324.117 195.039 322.316 190.041C320.514 185.043 319.747 179.731 320.061 174.428C319.693 168.84 320.458 163.234 322.31 157.949C324.162 152.663 327.062 147.806 330.837 143.669C334.612 139.531 339.184 136.2 344.279 133.873C349.374 131.546 354.886 130.273 360.484 130.129C364.991 129.781 369.51 130.62 373.591 132.563C377.672 134.506 381.172 137.486 383.742 141.204H384.295V132.344L411.429 132.898V206.495Z" fill="black"/>
<path d="M367.13 153.94C364.698 153.817 362.267 154.206 359.994 155.081C357.722 155.956 355.658 157.298 353.936 159.019C352.214 160.741 350.872 162.805 349.997 165.078C349.122 167.351 348.734 169.781 348.857 172.214C348.689 174.656 349.047 177.107 349.906 179.4C350.765 181.693 352.105 183.775 353.837 185.507C355.568 187.238 357.651 188.579 359.944 189.438C362.237 190.297 364.687 190.655 367.13 190.487C369.537 190.629 371.947 190.248 374.193 189.37C376.44 188.493 378.469 187.139 380.143 185.403C381.817 183.667 383.095 181.59 383.89 179.313C384.686 177.036 384.978 174.614 384.749 172.214C384.932 169.823 384.607 167.421 383.795 165.165C382.984 162.908 381.704 160.85 380.039 159.124C378.375 157.398 376.364 156.044 374.139 155.15C371.915 154.257 369.526 153.844 367.13 153.94Z" fill="black"/>
<path d="M95.2421 191.039C105.334 191.039 113.516 182.858 113.516 172.766C113.516 162.673 105.334 154.492 95.2421 154.492C85.15 154.492 76.9688 162.673 76.9688 172.766C76.9688 182.858 85.15 191.039 95.2421 191.039Z" fill="black"/>
</g>
<defs>
<clipPath id="clip0_3515_9">
<rect width="462.37" height="382.53" fill="white"/>
</clipPath>
</defs>
</svg>
