<svg width="53" height="54" viewBox="0 0 53 54" fill="none" xmlns="http://www.w3.org/2000/svg">
<path d="M26.3395 50.3382C39.3658 50.3382 49.9256 39.7784 49.9256 26.7521C49.9256 13.7259 39.3658 3.16602 26.3395 3.16602C13.3133 3.16602 2.75342 13.7259 2.75342 26.7521C2.75342 39.7784 13.3133 50.3382 26.3395 50.3382Z" fill="#FAE100"/>
<path d="M26.3394 12.0571C18.6563 12.0571 12.4495 17.7943 12.4495 24.907C12.4495 30.1409 14.6303 32.6572 17.6498 34.9387V41.0784C17.6498 41.3804 17.9853 41.5482 18.2202 41.3468L23.4876 37.455L23.5883 37.4885C24.4606 37.6563 25.4 37.7234 26.3059 37.7234C33.989 37.7234 40.1959 31.9862 40.1959 24.8735C40.2294 17.7943 33.989 12.0571 26.3394 12.0571ZM21.6759 28.1614C23.0515 28.1614 24.1922 27.3562 24.5613 26.0813H26.5743C26.071 28.497 24.1922 30.1074 21.6759 30.1074C18.757 30.1074 16.442 27.9266 16.442 24.907C16.442 21.8875 18.757 19.7067 21.6759 19.7067C24.2257 19.7067 26.1046 21.3171 26.5743 23.7999H24.5613C24.2593 22.4578 23.0515 21.6191 21.6759 21.6191C19.6964 21.6191 18.4215 23.0282 18.4215 24.907C18.3879 26.7859 19.8977 28.1614 21.6759 28.1614ZM34.9284 29.9061H33.0831V25.7458C33.0831 24.7728 32.5128 24.2696 31.674 24.2696C30.701 24.2696 30.0971 24.8399 30.0971 26.0478V29.9061H28.2518V19.7067H30.0971V23.5315C30.5333 22.8604 31.2714 22.5249 32.2444 22.5249C33.016 22.5249 33.687 22.7933 34.1903 23.2966C34.6936 23.8334 34.962 24.538 34.962 25.4774V29.9061H34.9284Z" fill="#020303"/>
</svg>
