<svg width="56" height="58" viewBox="0 0 56 58" fill="none" xmlns="http://www.w3.org/2000/svg">
<path d="M52.8458 28.2883C52.8458 42.3419 41.4363 53.7513 27.3828 53.7513C13.3292 53.7513 1.91968 42.3419 1.91968 28.2883C1.91968 14.2347 13.3292 2.8252 27.3828 2.8252C41.4726 2.8252 52.8458 14.2347 52.8458 28.2883Z" fill="url(#paint0_radial_3336_107)"/>
<path d="M34.3008 45.4567H20.5007C14.3795 45.4567 9.41724 40.4583 9.41724 34.3732V22.2031C9.41724 16.0819 14.3795 11.1196 20.5007 11.1196H34.3008C40.4221 11.1196 45.3843 16.0819 45.3843 22.2031V34.3732C45.3843 40.4583 40.4221 45.4567 34.3008 45.4567ZM20.5007 13.5826C15.7558 13.5826 11.8802 17.4582 11.8802 22.2031V34.3732C11.8802 39.1181 15.7558 42.9937 20.5007 42.9937H34.3008C39.0457 42.9937 42.9213 39.1181 42.9213 34.3732V22.2031C42.9213 17.4582 39.0457 13.5826 34.3008 13.5826H20.5007Z" fill="white"/>
<path d="M27.419 38.1763C21.9859 38.1763 17.5308 33.7574 17.5308 28.2881C17.5308 22.855 21.9497 18.3999 27.419 18.3999C32.8521 18.3999 37.3072 22.8188 37.3072 28.2881C37.271 33.7212 32.8521 38.1763 27.419 38.1763ZM27.419 20.8629C23.3261 20.8629 19.9938 24.1952 19.9938 28.2881C19.9938 32.381 23.3261 35.7133 27.419 35.7133C31.5119 35.7133 34.8442 32.381 34.8442 28.2881C34.808 24.1952 31.4757 20.8629 27.419 20.8629Z" fill="white"/>
<path d="M39.1909 18.6895C39.1909 19.8122 38.2853 20.7539 37.1262 20.7539C36.0033 20.7539 35.0615 19.8485 35.0615 18.6895C35.0615 17.5667 35.9671 16.625 37.1262 16.625C38.2491 16.6612 39.1909 17.5667 39.1909 18.6895Z" fill="white"/>
<defs>
<radialGradient id="paint0_radial_3336_107" cx="0" cy="0" r="1" gradientUnits="userSpaceOnUse" gradientTransform="translate(27.0032 30.2762) rotate(-49.2011) scale(71.9468 58.4235)">
<stop stop-color="#F9ED32"/>
<stop offset="0.0548" stop-color="#F8D939"/>
<stop offset="0.167" stop-color="#F5A54D"/>
<stop offset="0.3253" stop-color="#F0536C"/>
<stop offset="0.3998" stop-color="#EE2A7B"/>
<stop offset="0.5639" stop-color="#9E2AA7"/>
<stop offset="0.7189" stop-color="#5B2ACD"/>
<stop offset="0.8476" stop-color="#2A2AE8"/>
<stop offset="0.9451" stop-color="#0B2AF9"/>
<stop offset="1" stop-color="#002AFF"/>
</radialGradient>
</defs>
</svg>
