<svg width="52" height="53" viewBox="0 0 52 53" fill="none" xmlns="http://www.w3.org/2000/svg">
<path d="M26.1828 49.8329C39.1288 49.8329 49.6236 39.338 49.6236 26.392C49.6236 13.446 39.1288 2.95117 26.1828 2.95117C13.2368 2.95117 2.74194 13.446 2.74194 26.392C2.74194 39.338 13.2368 49.8329 26.1828 49.8329Z" fill="#00C63B"/>
<path d="M37.1864 18.2226L34.8523 16.0552C34.3521 15.4884 33.6185 15.1216 32.8183 15.1216H17.1466C15.6128 15.1216 14.3457 16.3887 14.3457 17.9225V35.1947C14.3457 35.6615 14.4457 36.0283 14.6125 36.295C14.6791 36.3951 14.7458 36.4618 14.8459 36.5284L17.0799 38.5958C17.1133 38.6291 17.1466 38.6625 17.1799 38.6958L17.2133 38.7291C17.2466 38.7625 17.28 38.7958 17.3133 38.7958C17.4467 38.8625 17.5801 38.8959 17.7468 38.8959C18.1803 38.8959 18.5137 38.6625 18.6137 38.5958L21.2479 35.8949C21.8148 35.228 23.3152 35.0613 23.8487 35.0613H35.1857C36.7195 35.0613 37.9866 33.7942 37.9866 32.2604V20.1232C37.9866 19.3896 37.6865 18.7227 37.1864 18.2226ZM34.6856 18.2559V30.093C34.6856 31.1267 33.852 31.9603 32.8183 31.9603H21.4813C21.2479 31.9603 19.1139 31.9937 18.2136 33.094L17.6468 33.6275L16.7131 34.5945L15.6795 35.6615C15.6128 35.6948 15.4794 35.7615 15.3794 35.7615C15.3794 35.7615 15.2793 35.6615 15.2793 35.1947V17.9225C15.2793 16.8888 16.1129 16.0552 17.1466 16.0552H32.8183C33.6185 16.0552 34.3188 16.5887 34.5855 17.3223C34.6522 17.5224 34.6856 17.7224 34.6856 17.9225V18.2559Z" fill="white"/>
<path d="M20.5145 20.9902C19.7476 20.9902 19.114 21.6238 19.114 22.3907V25.325C19.114 26.0919 19.7476 26.7254 20.5145 26.7254C21.2814 26.7254 21.9149 26.0919 21.9149 25.325V22.3907C21.9149 21.5904 21.2814 20.9902 20.5145 20.9902Z" fill="white"/>
<path d="M29.1839 20.9902C28.417 20.9902 27.7834 21.6238 27.7834 22.3907V25.325C27.7834 26.0919 28.417 26.7254 29.1839 26.7254C29.9508 26.7254 30.5843 26.0919 30.5843 25.325V22.3907C30.5843 21.5904 29.9508 20.9902 29.1839 20.9902Z" fill="white"/>
</svg>
