<svg width="24" height="24" viewBox="0 0 24 24" fill="none" xmlns="http://www.w3.org/2000/svg">
<path fill-rule="evenodd" clip-rule="evenodd" d="M12.0032 2.80117C6.9221 2.80117 2.80312 6.92015 2.80312 12.0012C2.80312 17.0822 6.9221 21.2012 12.0032 21.2012C17.0842 21.2012 21.2032 17.0822 21.2032 12.0012C21.2032 6.92015 17.0842 2.80117 12.0032 2.80117ZM1.20312 12.0012C1.20312 6.03649 6.03846 1.20117 12.0032 1.20117C17.9678 1.20117 22.8032 6.03649 22.8032 12.0012C22.8032 17.9659 17.9678 22.8012 12.0032 22.8012C6.03846 22.8012 1.20312 17.9659 1.20312 12.0012Z" fill="black"/>
<path fill-rule="evenodd" clip-rule="evenodd" d="M11.4668 22.5921C5.2194 16.9126 5.2194 7.08767 11.4668 1.4082L12.5431 2.59211C6.99397 7.63676 6.99397 16.3636 12.5431 21.4082L11.4668 22.5921Z" fill="black"/>
<path fill-rule="evenodd" clip-rule="evenodd" d="M12.5451 22.5921C18.7925 16.9126 18.7925 7.08767 12.5451 1.4082L11.4688 2.59211C17.0177 7.63676 17.0177 16.3636 11.4688 21.4082L12.5451 22.5921Z" fill="black"/>
<path fill-rule="evenodd" clip-rule="evenodd" d="M1.70312 9.00117C1.70312 8.55934 2.06129 8.20117 2.50312 8.20117H21.5032C21.945 8.20117 22.3031 8.55934 22.3031 9.00117C22.3031 9.44299 21.945 9.80117 21.5032 9.80117H2.50312C2.06129 9.80117 1.70312 9.44299 1.70312 9.00117Z" fill="black"/>
<path fill-rule="evenodd" clip-rule="evenodd" d="M1.70312 15.0012C1.70312 14.5594 2.06129 14.2012 2.50312 14.2012H21.5032C21.945 14.2012 22.3031 14.5594 22.3031 15.0012C22.3031 15.443 21.945 15.8012 21.5032 15.8012H2.50312C2.06129 15.8012 1.70312 15.443 1.70312 15.0012Z" fill="black"/>
</svg>
