<svg width="448" height="512" viewBox="0 0 448 512" fill="none" xmlns="http://www.w3.org/2000/svg">
<g clip-path="url(#clip0_3468_64581)">
<mask id="mask0_3468_64581" style="mask-type:luminance" maskUnits="userSpaceOnUse" x="0" y="0" width="448" height="512">
<path d="M448 0H0V512H448V0Z" fill="white"/>
</mask>
<g mask="url(#mask0_3468_64581)">
<mask id="mask1_3468_64581" style="mask-type:luminance" maskUnits="userSpaceOnUse" x="0" y="0" width="448" height="512">
<path d="M448 0H0V512H448V0Z" fill="white"/>
</mask>
<g mask="url(#mask1_3468_64581)">
<path d="M224.097 141.001C160.497 141.001 109.197 192.301 109.197 255.901C109.197 319.501 160.497 370.801 224.097 370.801C287.697 370.801 338.997 319.501 338.997 255.901C338.997 192.301 287.697 141.001 224.097 141.001ZM224.097 330.601C182.997 330.601 149.397 297.101 149.397 255.901C149.397 214.701 182.897 181.201 224.097 181.201C265.297 181.201 298.797 214.701 298.797 255.901C298.797 297.101 265.197 330.601 224.097 330.601ZM370.497 136.301C370.497 151.201 358.497 163.101 343.697 163.101C328.797 163.101 316.897 151.101 316.897 136.301C316.897 121.501 328.897 109.501 343.697 109.501C358.497 109.501 370.497 121.501 370.497 136.301ZM446.597 163.501C444.897 127.601 436.697 95.8012 410.397 69.6012C384.197 43.4012 352.397 35.2012 316.497 33.4012C279.497 31.3012 168.597 31.3012 131.597 33.4012C95.7969 35.1012 63.9969 43.3012 37.6969 69.5012C11.3969 95.7012 3.29688 127.501 1.49687 163.401C-0.603123 200.401 -0.603123 311.301 1.49687 348.301C3.19688 384.201 11.3969 416.001 37.6969 442.201C63.9969 468.401 95.6969 476.601 131.597 478.401C168.597 480.501 279.497 480.501 316.497 478.401C352.397 476.701 384.197 468.501 410.397 442.201C436.597 416.001 444.797 384.201 446.597 348.301C448.697 311.301 448.697 200.501 446.597 163.501ZM398.797 388.001C390.997 407.601 375.897 422.701 356.197 430.601C326.697 442.301 256.697 439.601 224.097 439.601C191.497 439.601 121.397 442.201 91.9969 430.601C72.3969 422.801 57.2969 407.701 49.3969 388.001C37.6969 358.501 40.3969 288.501 40.3969 255.901C40.3969 223.301 37.7969 153.201 49.3969 123.801C57.1969 104.201 72.2969 89.1012 91.9969 81.2012C121.497 69.5012 191.497 72.2012 224.097 72.2012C256.697 72.2012 326.797 69.6012 356.197 81.2012C375.797 89.0012 390.897 104.101 398.797 123.801C410.497 153.301 407.797 223.301 407.797 255.901C407.797 288.501 410.497 358.601 398.797 388.001Z" fill="black"/>
</g>
</g>
</g>
<defs>
<clipPath id="clip0_3468_64581">
<rect width="448" height="512" fill="white"/>
</clipPath>
</defs>
</svg>
