<svg width="170" height="57" viewBox="0 0 170 57" fill="none" xmlns="http://www.w3.org/2000/svg">
<g clip-path="url(#clip0_3507_51)">
<g clip-path="url(#clip1_3507_51)">
<mask id="mask0_3507_51" style="mask-type:luminance" maskUnits="userSpaceOnUse" x="0" y="0" width="7" height="7">
<path d="M4.30721 0H2.15361C0.964202 0 0 0.964202 0 2.15361V4.3113C0 5.5007 0.964202 6.4649 2.15361 6.4649H4.30721C5.49661 6.4649 6.46082 5.5007 6.46082 4.3113V2.15361C6.46082 0.964202 5.49661 0 4.30721 0Z" fill="white"/>
</mask>
<g mask="url(#mask0_3507_51)">
<path d="M6.46082 0H0V6.4649H6.46082V0Z" fill="url(#paint0_linear_3507_51)"/>
</g>
<mask id="mask1_3507_51" style="mask-type:luminance" maskUnits="userSpaceOnUse" x="0" y="0" width="35" height="34">
<path d="M8.61851 0V19.3906C8.61851 20.2394 8.78576 21.0799 9.1107 21.864C9.43564 22.6481 9.91191 23.3606 10.5123 23.9606C11.1127 24.5606 11.8254 25.0364 12.6097 25.3608C13.394 25.6853 14.2346 25.852 15.0834 25.8514V6.4649H19.3906C20.5222 6.4649 21.6427 6.68786 22.6882 7.12103C23.7336 7.5542 24.6834 8.1891 25.4834 8.98945C26.2834 9.78981 26.9178 10.7399 27.3505 11.7856C27.7832 12.8312 28.0056 13.9518 28.005 15.0834V28.0091H15.0834C12.7973 28.0091 10.6047 27.1012 8.98776 25.4851C7.37083 23.8689 6.4619 21.6768 6.46082 19.3906V8.61851H0V19.3906C0.000955326 22.7365 1.11379 25.9873 3.16357 28.6318C5.21336 31.2763 8.08384 33.1647 11.3238 34H34.4699V15.0834C34.4705 13.1028 34.0808 11.1415 33.3233 9.31155C32.5657 7.48157 31.4551 5.81876 30.0548 4.41808C28.6545 3.0174 26.9919 1.9063 25.1622 1.14824C23.3324 0.390174 21.3712 -7.27297e-08 19.3906 0L8.61851 0Z" fill="white"/>
</mask>
<g mask="url(#mask1_3507_51)">
<path d="M34.4699 0H0V34H34.4699V0Z" fill="url(#paint1_linear_3507_51)"/>
</g>
<path d="M60.6608 9.96717C60.6608 5.2513 56.9829 1.11572 50.9471 1.11572C44.9113 1.11572 41.2334 5.2513 41.2334 9.96717C41.2334 14.7893 44.7928 18.9249 50.9471 18.9249C57.1014 18.9249 60.6608 14.7893 60.6608 9.96717ZM46.4846 9.96717C46.4846 7.51524 47.9966 5.21861 50.9471 5.21861C54.0038 5.21861 55.4096 7.51933 55.4096 9.96717C55.4096 12.5213 53.8976 14.6789 50.9471 14.6789C47.9966 14.6789 46.4846 12.5213 46.4846 9.96717Z" fill="#4C4D4F"/>
<path d="M67.5139 0H64.7964V24.3558H70.2315V2.71755C70.2315 2.36067 70.1612 2.0073 70.0246 1.67759C69.8881 1.34788 69.6879 1.0483 69.4355 0.795951C69.1832 0.543604 68.8836 0.343431 68.5539 0.206861C68.2242 0.0702914 67.8708 0 67.5139 0Z" fill="#4C4D4F"/>
<path d="M68.8298 29.1413H52.4223V24.9281C52.4213 24.1838 52.1251 23.4703 51.5989 22.9441C51.0726 22.4178 50.3591 22.1217 49.6149 22.1206H46.8115V24.9281V30.3632C46.8115 31.1359 47.1185 31.877 47.6649 32.4235C48.2114 32.9699 48.9525 33.2769 49.7252 33.2769H70.8771V31.205C70.8798 30.9346 70.8289 30.6664 70.7271 30.4158C70.6254 30.1653 70.475 29.9374 70.2845 29.7455C70.0941 29.5535 69.8674 29.4013 69.6177 29.2976C69.368 29.1938 69.1002 29.1407 68.8298 29.1413Z" fill="#4C4D4F"/>
<path d="M99.9689 0H97.2146V11.0786H91.853V15.5288H97.2146V34H102.719V2.75433C102.72 2.39282 102.649 2.03475 102.511 1.7006C102.373 1.36645 102.17 1.06279 101.915 0.806971C101.66 0.551155 101.356 0.348208 101.022 0.20974C100.688 0.0712719 100.33 -3.9908e-07 99.9689 0Z" fill="#4C4D4F"/>
<path d="M167.867 29.1413H151.464V24.9281C151.462 24.1838 151.166 23.4703 150.64 22.9441C150.114 22.4178 149.4 22.1217 148.656 22.1206H145.849V30.3632C145.85 31.1335 146.155 31.8721 146.699 32.4179C147.242 32.9638 147.98 33.2725 148.75 33.2769H169.918V31.205C169.921 30.9343 169.87 30.6657 169.768 30.4149C169.666 30.1641 169.515 29.936 169.324 29.744C169.133 29.552 168.906 29.3999 168.656 29.2964C168.406 29.1929 168.138 29.1402 167.867 29.1413Z" fill="#4C4D4F"/>
<path d="M150.491 14.7852C152.709 17.3658 155.561 19.3247 158.766 20.4696L161.034 16.8734C156.948 15.2388 152.971 12.7378 152.971 8.23856V1.11572H147.577V8.27534C147.577 12.9871 142.902 15.9008 138.546 18.0258L141.533 21.5116C144.917 19.8239 148.55 17.5722 150.491 14.7852Z" fill="#4C4D4F"/>
<path d="M166.539 3.06365e-06H163.801V3.78005H158.443V7.91563H163.801V10.8988H158.443V15.0752H163.801V24.5192H169.273V2.7339C169.273 2.37473 169.203 2.01898 169.066 1.68705C168.928 1.35511 168.727 1.05351 168.473 0.799542C168.219 0.545569 167.918 0.344213 167.586 0.207012C167.254 0.069812 166.898 -0.000535022 166.539 3.06365e-06Z" fill="#4C4D4F"/>
<path d="M121.938 19.4276C129.703 19.4276 134.492 15.4351 134.492 10.2533C134.492 4.96536 129.707 0.936035 121.938 0.936035C113.736 0.936035 109.131 4.85503 109.131 10.2533C109.131 15.4678 113.806 19.4276 121.938 19.4276ZM121.938 5.12474C126.433 5.12474 129.204 7.16801 129.204 10.2697C129.204 13.2569 126.47 15.2716 121.938 15.2716C117.259 15.2716 114.419 13.2937 114.419 10.2697C114.423 7.12306 117.259 5.10839 121.938 5.10839V5.12474Z" fill="#4C4D4F"/>
<path d="M136.012 24.8214H124.529V20.7349H118.918V24.8214H105.433V29.1409H138.096V26.9709C138.093 26.4132 137.874 25.8785 137.485 25.4781C137.097 25.0776 136.57 24.8424 136.012 24.8214Z" fill="#4C4D4F"/>
<path d="M80.5949 21.9119V15.5287H89.2298V11.4422H80.5949V6.18687H91.5386V2.08398H77.8079C77.0871 2.08398 76.3959 2.3703 75.8863 2.87994C75.3766 3.38958 75.0903 4.08079 75.0903 4.80153V23.1664C75.0903 23.9202 75.3877 24.6435 75.918 25.1791C76.4483 25.7148 77.1686 26.0195 77.9223 26.027H78.0245C84.1543 26.027 88.4656 25.8758 94.0886 25.0953V21.1191C89.6115 21.663 85.1049 21.9278 80.5949 21.9119Z" fill="#4C4D4F"/>
</g>
<rect y="47" width="82" height="1" fill="#858587"/>
<path d="M97.796 42.088H98.744V48.16H97.796V42.088ZM94.652 44.932H96.368V45.736H94.652V44.932ZM95.84 42.268H96.776V48.064H95.84V42.268ZM91.58 48.628H98.744V51.04H92.588V52.276H91.604V50.32H97.772V49.372H91.58V48.628ZM91.604 52.048H99.14V52.816H91.604V52.048ZM89.54 43.132H94.916V43.912H89.54V43.132ZM92.228 44.344C92.676 44.344 93.064 44.42 93.392 44.572C93.728 44.716 93.992 44.924 94.184 45.196C94.376 45.46 94.472 45.776 94.472 46.144C94.472 46.504 94.376 46.82 94.184 47.092C93.992 47.356 93.728 47.564 93.392 47.716C93.064 47.86 92.676 47.932 92.228 47.932C91.788 47.932 91.4 47.86 91.064 47.716C90.728 47.564 90.464 47.356 90.272 47.092C90.08 46.82 89.984 46.504 89.984 46.144C89.984 45.776 90.08 45.46 90.272 45.196C90.464 44.924 90.728 44.716 91.064 44.572C91.4 44.42 91.788 44.344 92.228 44.344ZM92.228 45.064C91.828 45.064 91.5 45.164 91.244 45.364C90.988 45.556 90.86 45.816 90.86 46.144C90.86 46.464 90.988 46.724 91.244 46.924C91.5 47.124 91.828 47.224 92.228 47.224C92.636 47.224 92.964 47.124 93.212 46.924C93.468 46.724 93.596 46.464 93.596 46.144C93.596 45.816 93.468 45.556 93.212 45.364C92.964 45.164 92.636 45.064 92.228 45.064ZM91.736 42.052H92.72V43.708H91.736V42.052ZM104.983 42.82H105.859V43.66C105.859 44.132 105.775 44.58 105.607 45.004C105.447 45.428 105.223 45.824 104.935 46.192C104.655 46.552 104.327 46.876 103.951 47.164C103.583 47.452 103.187 47.696 102.763 47.896C102.347 48.096 101.923 48.248 101.491 48.352L101.047 47.524C101.423 47.444 101.799 47.32 102.175 47.152C102.559 46.984 102.919 46.78 103.255 46.54C103.591 46.292 103.887 46.016 104.143 45.712C104.407 45.408 104.611 45.084 104.755 44.74C104.907 44.388 104.983 44.028 104.983 43.66V42.82ZM105.175 42.82H106.027V43.66C106.027 44.028 106.103 44.388 106.255 44.74C106.407 45.084 106.611 45.408 106.867 45.712C107.131 46.016 107.431 46.292 107.767 46.54C108.103 46.78 108.459 46.988 108.835 47.164C109.219 47.332 109.603 47.452 109.987 47.524L109.531 48.352C109.099 48.248 108.675 48.096 108.259 47.896C107.843 47.696 107.447 47.452 107.071 47.164C106.703 46.876 106.375 46.552 106.087 46.192C105.799 45.824 105.575 45.428 105.415 45.004C105.255 44.58 105.175 44.132 105.175 43.66V42.82ZM100.639 50.644H110.479V51.472H100.639V50.644ZM115.47 43.36H116.418C116.418 44.064 116.354 44.756 116.226 45.436C116.106 46.116 115.894 46.772 115.59 47.404C115.286 48.028 114.866 48.616 114.33 49.168C113.794 49.72 113.118 50.224 112.302 50.68L111.738 49.972C112.466 49.572 113.07 49.132 113.55 48.652C114.03 48.172 114.41 47.66 114.69 47.116C114.978 46.564 115.178 45.988 115.29 45.388C115.41 44.78 115.47 44.156 115.47 43.516V43.36ZM112.254 43.36H115.842V44.176H112.254V43.36ZM115.35 45.868V46.624L111.87 46.972L111.726 46.108L115.35 45.868ZM115.566 46.36H118.062V47.176H115.566V46.36ZM119.946 42.076H120.906V52.936H119.946V42.076ZM117.69 42.364H118.626V52.384H117.69V42.364ZM125.609 42.916C126.137 42.916 126.605 43.072 127.013 43.384C127.421 43.688 127.737 44.124 127.961 44.692C128.193 45.26 128.309 45.928 128.309 46.696C128.309 47.464 128.193 48.132 127.961 48.7C127.737 49.268 127.421 49.708 127.013 50.02C126.605 50.332 126.137 50.488 125.609 50.488C125.089 50.488 124.621 50.332 124.205 50.02C123.797 49.708 123.477 49.268 123.245 48.7C123.021 48.132 122.909 47.464 122.909 46.696C122.909 45.928 123.021 45.26 123.245 44.692C123.477 44.124 123.797 43.688 124.205 43.384C124.621 43.072 125.089 42.916 125.609 42.916ZM125.609 43.804C125.265 43.804 124.961 43.924 124.697 44.164C124.433 44.396 124.225 44.732 124.073 45.172C123.929 45.604 123.857 46.112 123.857 46.696C123.857 47.28 123.929 47.792 124.073 48.232C124.225 48.664 124.433 49 124.697 49.24C124.961 49.48 125.265 49.6 125.609 49.6C125.961 49.6 126.269 49.48 126.533 49.24C126.797 49 127.001 48.664 127.145 48.232C127.297 47.792 127.373 47.28 127.373 46.696C127.373 46.112 127.297 45.604 127.145 45.172C127.001 44.732 126.797 44.396 126.533 44.164C126.269 43.924 125.961 43.804 125.609 43.804ZM130.661 42.076H131.645V52.948H130.661V42.076ZM127.985 46.216H131.105V47.02H127.985V46.216ZM139.783 43.012H140.599V44.956C140.599 45.556 140.523 46.144 140.371 46.72C140.227 47.296 140.019 47.836 139.747 48.34C139.475 48.844 139.155 49.292 138.787 49.684C138.419 50.076 138.019 50.388 137.587 50.62L136.975 49.816C137.375 49.616 137.743 49.348 138.079 49.012C138.423 48.668 138.723 48.276 138.979 47.836C139.235 47.396 139.431 46.932 139.567 46.444C139.711 45.948 139.783 45.452 139.783 44.956V43.012ZM139.963 43.012H140.767V44.956C140.767 45.436 140.835 45.912 140.971 46.384C141.115 46.856 141.315 47.3 141.571 47.716C141.827 48.132 142.119 48.504 142.447 48.832C142.783 49.16 143.143 49.42 143.527 49.612L142.915 50.404C142.491 50.188 142.099 49.892 141.739 49.516C141.387 49.14 141.075 48.712 140.803 48.232C140.539 47.744 140.331 47.224 140.179 46.672C140.035 46.112 139.963 45.54 139.963 44.956V43.012ZM144.475 42.076H145.471V52.936H144.475V42.076ZM145.243 46.468H147.247V47.32H145.243V46.468ZM153.618 44.668H156.534V45.484H153.618V44.668ZM151.134 42.58C151.67 42.58 152.146 42.688 152.562 42.904C152.986 43.112 153.318 43.404 153.558 43.78C153.798 44.156 153.918 44.592 153.918 45.088C153.918 45.584 153.798 46.024 153.558 46.408C153.318 46.784 152.986 47.08 152.562 47.296C152.146 47.504 151.67 47.608 151.134 47.608C150.59 47.608 150.106 47.504 149.682 47.296C149.266 47.08 148.938 46.784 148.698 46.408C148.458 46.024 148.338 45.584 148.338 45.088C148.338 44.592 148.458 44.156 148.698 43.78C148.938 43.404 149.266 43.112 149.682 42.904C150.106 42.688 150.59 42.58 151.134 42.58ZM151.134 43.42C150.774 43.42 150.454 43.492 150.174 43.636C149.902 43.772 149.686 43.968 149.526 44.224C149.366 44.472 149.286 44.76 149.286 45.088C149.286 45.416 149.366 45.708 149.526 45.964C149.686 46.212 149.902 46.408 150.174 46.552C150.454 46.696 150.774 46.768 151.134 46.768C151.486 46.768 151.798 46.696 152.07 46.552C152.35 46.408 152.57 46.212 152.73 45.964C152.89 45.708 152.97 45.416 152.97 45.088C152.97 44.76 152.89 44.472 152.73 44.224C152.57 43.968 152.35 43.772 152.07 43.636C151.798 43.492 151.486 43.42 151.134 43.42ZM156.102 42.076H157.098V47.908H156.102V42.076ZM150.15 48.448H151.134V49.804H156.102V48.448H157.098V52.792H150.15V48.448ZM151.134 50.596V51.976H156.102V50.596H151.134ZM159.197 48.508H169.037V49.312H159.197V48.508ZM163.601 48.88H164.585V52.936H163.601V48.88ZM160.445 42.52H161.429V44.008H166.793V42.52H167.789V47.212H160.445V42.52ZM161.429 44.812V46.396H166.793V44.812H161.429Z" fill="#5F6061"/>
</g>
<defs>
<linearGradient id="paint0_linear_3507_51" x1="0.27151" y1="3.55365" x2="34.2882" y2="3.55365" gradientUnits="userSpaceOnUse">
<stop stop-color="#004FA2"/>
<stop offset="1" stop-color="#32B6A0"/>
</linearGradient>
<linearGradient id="paint1_linear_3507_51" x1="0.0376779" y1="16.3848" x2="34.142" y2="16.3848" gradientUnits="userSpaceOnUse">
<stop stop-color="#004FA2"/>
<stop offset="1" stop-color="#32B6A0"/>
</linearGradient>
<clipPath id="clip0_3507_51">
<rect width="170" height="57" fill="white"/>
</clipPath>
<clipPath id="clip1_3507_51">
<rect width="169.918" height="34" fill="white"/>
</clipPath>
</defs>
</svg>
