<svg width="49" height="49" viewBox="0 0 49 49" fill="none" xmlns="http://www.w3.org/2000/svg">
<circle cx="24.4534" cy="24.8289" r="24.0237" fill="#00C63B"/>
<path d="M26.0598 21.9868C25.8929 21.9833 25.7272 22.0149 25.5729 22.0796C25.4186 22.1443 25.2792 22.2407 25.1634 22.3627C25.0475 22.4848 24.9578 22.6298 24.8997 22.7888C24.8417 22.9477 24.8167 23.1171 24.8262 23.2864C24.8262 23.6258 24.9589 23.9513 25.1952 24.1914C25.4316 24.4314 25.7521 24.5662 26.0863 24.5662C26.4204 24.5662 26.7409 24.4314 26.9773 24.1914C27.2136 23.9513 27.3463 23.6258 27.3463 23.2864C27.355 23.1128 27.3276 22.9393 27.2659 22.7771C27.2043 22.615 27.1097 22.4678 26.9883 22.3453C26.867 22.2227 26.7216 22.1274 26.5616 22.0657C26.4017 22.0039 26.2307 21.9771 26.0598 21.9868Z" fill="white"/>
<path d="M38.513 12.8903C37.9232 12.2894 37.2222 11.813 36.4503 11.4885C35.6784 11.1641 34.8509 10.9981 34.0156 11H14.3585C13.5233 10.9993 12.6961 11.1659 11.9244 11.4902C11.1526 11.8145 10.4514 12.2902 9.86081 12.89C9.27023 13.4899 8.8019 14.2021 8.4826 14.986C8.1633 15.7699 7.99931 16.61 8 17.4584V27.0671C7.99931 27.9154 8.1633 28.7556 8.4826 29.5394C8.8019 30.3233 9.27023 31.0356 9.86081 31.6354C10.4514 32.2353 11.1526 32.711 11.9244 33.0353C12.6961 33.3596 13.5233 33.5261 14.3585 33.5254H21.6087L23.7024 37.8501C23.7364 37.9533 23.8015 38.043 23.8885 38.1066C23.9754 38.1702 24.0799 38.2044 24.187 38.2044C24.2942 38.2044 24.3986 38.1702 24.4856 38.1066C24.5726 38.043 24.6377 37.9533 24.6717 37.8501L26.7653 33.5183H34.0156C34.8502 33.519 35.6767 33.3527 36.448 33.0288C37.2193 32.7049 37.9203 32.2299 38.5108 31.6308C39.1012 31.0317 39.5697 30.3203 39.8894 29.5372C40.2091 28.7542 40.3738 27.9148 40.3741 27.0671V17.4584C40.3759 16.6099 40.2125 15.7694 39.8931 14.9854C39.5737 14.2014 39.1046 13.4893 38.513 12.8903ZM15.1339 26.3941C14.8101 26.4081 14.4879 26.3403 14.1963 26.1966C13.9046 26.0528 13.6527 25.8378 13.4632 25.5707H13.428V26.2007H11.4506V17.734H13.4632V20.956C13.6781 20.7143 13.9416 20.5224 14.236 20.3933C14.5304 20.2642 14.8486 20.2009 15.1692 20.2078C15.5511 20.2202 15.9267 20.3104 16.2736 20.4731C16.6206 20.6357 16.9318 20.8675 17.1889 21.1547C17.446 21.4418 17.6436 21.7785 17.7702 22.1447C17.8967 22.511 17.9495 22.8993 17.9255 23.2866C17.9478 23.6779 17.8928 24.0698 17.7638 24.4392C17.6348 24.8086 17.4343 25.1481 17.1742 25.4376C16.9141 25.7272 16.5996 25.961 16.2492 26.1252C15.8988 26.2895 15.5196 26.3809 15.1339 26.3941ZM21.4536 26.1972H19.5151V21.3176C19.5151 20.4119 19.36 19.6243 18.5846 19.5061V17.5371C20.2905 17.5371 21.4536 18.7901 21.4536 20.9238V26.1972ZM26.1062 26.3547C25.6835 26.3934 25.2575 26.3422 24.8553 26.2044C24.4531 26.0667 24.0836 25.8453 23.7703 25.5545C23.457 25.2637 23.2068 24.9097 23.0356 24.5153C22.8644 24.1208 22.776 23.6944 22.776 23.2633C22.776 22.8322 22.8644 22.4059 23.0356 22.0114C23.2068 21.6169 23.457 21.263 23.7703 20.9722C24.0836 20.6814 24.4531 20.46 24.8553 20.3222C25.2575 20.1845 25.6835 20.1333 26.1062 20.172C26.5291 20.141 26.9538 20.1981 27.3542 20.3399C27.7546 20.4817 28.1223 20.7051 28.4345 20.9965C28.7468 21.2878 28.9971 21.641 29.1701 22.0342C29.3431 22.4274 29.4352 22.8524 29.4405 23.283C29.4381 23.7131 29.3478 24.1379 29.1753 24.5307C29.0028 24.9234 28.7519 25.2755 28.4384 25.5646C28.125 25.8537 27.7558 26.0735 27.3544 26.2101C26.9529 26.3467 26.5279 26.3972 26.1062 26.3583V26.3547ZM36.8071 25.6852C36.8071 28.1268 35.6052 29.3476 33.5115 29.3476H33.1238V27.5003H33.5115C34.5584 27.5003 34.8685 26.8308 34.8685 25.8463V25.5707C34.6506 25.8217 34.3819 26.0219 34.0808 26.1579C33.7797 26.2938 33.4533 26.3621 33.1238 26.3583C32.7519 26.3546 32.3845 26.2741 32.0441 26.1219C31.7037 25.9696 31.3973 25.7486 31.1435 25.4724C30.8897 25.1962 30.6938 24.8705 30.5676 24.5151C30.4415 24.1597 30.3878 23.7819 30.4098 23.4048C30.3841 23.0073 30.4376 22.6087 30.5673 22.2328C30.6969 21.8569 30.9 21.5114 31.1643 21.2172C31.4286 20.923 31.7488 20.6861 32.1055 20.5206C32.4622 20.3551 32.8481 20.2646 33.2401 20.2543C33.5557 20.2296 33.8721 20.2893 34.1578 20.4274C34.4435 20.5656 34.6886 20.7775 34.8685 21.0419H34.9073V20.4119L36.8071 20.4512V25.6852Z" fill="white"/>
<path d="M33.7049 21.9474C33.5346 21.9386 33.3644 21.9663 33.2053 22.0285C33.0461 22.0907 32.9016 22.1861 32.7811 22.3086C32.6605 22.4311 32.5666 22.5778 32.5053 22.7395C32.444 22.9011 32.4168 23.074 32.4254 23.2469C32.4137 23.4207 32.4387 23.5949 32.4989 23.758C32.559 23.9211 32.6529 24.0692 32.7741 24.1923C32.8954 24.3154 33.0412 24.4107 33.2017 24.4718C33.3623 24.5329 33.5338 24.5584 33.7049 24.5465C33.8734 24.5565 34.0421 24.5294 34.1994 24.467C34.3567 24.4046 34.4988 24.3084 34.616 24.1849C34.7332 24.0615 34.8227 23.9137 34.8784 23.7518C34.9341 23.5899 34.9546 23.4176 34.9385 23.2469C34.9513 23.0769 34.9286 22.9061 34.8717 22.7456C34.8149 22.5852 34.7253 22.4388 34.6088 22.316C34.4922 22.1933 34.3514 22.097 34.1957 22.0334C34.0399 21.9699 33.8726 21.9406 33.7049 21.9474Z" fill="white"/>
<path d="M14.6686 24.5859C15.3752 24.5859 15.9481 24.0041 15.9481 23.2864C15.9481 22.5686 15.3752 21.9868 14.6686 21.9868C13.962 21.9868 13.3892 22.5686 13.3892 23.2864C13.3892 24.0041 13.962 24.5859 14.6686 24.5859Z" fill="white"/>
</svg>
